<?xml version="1.0" encoding="utf-8" standalone="no"?>
<!DOCTYPE svg PUBLIC "-//W3C//DTD SVG 1.1//EN" "http://www.w3.org/Graphics/SVG/1.1/DTD/svg11.dtd">
<svg xmlns="http://www.w3.org/2000/svg" xmlns:xl="http://www.w3.org/1999/xlink" version="1.1" viewBox="115 34 301 166" width="301pt" height="166pt" xmlns:dc="http://purl.org/dc/elements/1.1/"><metadata> Produced by OmniGraffle 6.2 <dc:date>2015-04-07 02:30:20 +0000</dc:date></metadata><defs/><g stroke="none" stroke-opacity="1" stroke-dasharray="none" fill="none" fill-opacity="1"><title>Canvas 1</title><rect fill="white" width="522" height="620"/><g><title>Layer 1</title><circle cx="153" cy="90" r="9.0000144" fill="red"/><circle cx="153" cy="90" r="9.0000144" stroke="red" stroke-linecap="round" stroke-linejoin="round" stroke-width="1"/><circle cx="306" cy="117" r="9.0000144" fill="red"/><circle cx="306" cy="117" r="9.0000144" stroke="red" stroke-linecap="round" stroke-linejoin="round" stroke-width="1"/><circle cx="135" cy="108" r="9.0000144" fill="red"/><circle cx="135" cy="108" r="9.0000144" stroke="red" stroke-linecap="round" stroke-linejoin="round" stroke-width="1"/><circle cx="288" cy="99" r="9.0000144" fill="red"/><circle cx="288" cy="99" r="9.0000144" stroke="red" stroke-linecap="round" stroke-linejoin="round" stroke-width="1"/><circle cx="270" cy="81" r="9.0000144" fill="red"/><circle cx="270" cy="81" r="9.0000144" stroke="red" stroke-linecap="round" stroke-linejoin="round" stroke-width="1"/><circle cx="252" cy="63" r="9.0000144" fill="red"/><circle cx="252" cy="63" r="9.0000144" stroke="red" stroke-linecap="round" stroke-linejoin="round" stroke-width="1"/><circle cx="225" cy="54" r="9.0000144" fill="red"/><circle cx="225" cy="54" r="9.0000144" stroke="red" stroke-linecap="round" stroke-linejoin="round" stroke-width="1"/><circle cx="198" cy="63" r="9.0000144" fill="red"/><circle cx="198" cy="63" r="9.0000144" stroke="red" stroke-linecap="round" stroke-linejoin="round" stroke-width="1"/><circle cx="171" cy="72" r="9.0000144" fill="red"/><circle cx="171" cy="72" r="9.0000144" stroke="red" stroke-linecap="round" stroke-linejoin="round" stroke-width="1"/><circle cx="216" cy="144" r="9.0000144" fill="blue"/><circle cx="216" cy="144" r="9.0000144" stroke="blue" stroke-linecap="round" stroke-linejoin="round" stroke-width="1"/><circle cx="198" cy="126" r="9.0000144" fill="blue"/><circle cx="198" cy="126" r="9.0000144" stroke="blue" stroke-linecap="round" stroke-linejoin="round" stroke-width="1"/><circle cx="243" cy="162" r="9.0000144" fill="blue"/><circle cx="243" cy="162" r="9.0000144" stroke="blue" stroke-linecap="round" stroke-linejoin="round" stroke-width="1"/><circle cx="279" cy="171" r="9.0000144" fill="blue"/><circle cx="279" cy="171" r="9.0000144" stroke="blue" stroke-linecap="round" stroke-linejoin="round" stroke-width="1"/><circle cx="369" cy="144" r="9.0000144" fill="blue"/><circle cx="369" cy="144" r="9.0000144" stroke="blue" stroke-linecap="round" stroke-linejoin="round" stroke-width="1"/><circle cx="342" cy="162" r="9.0000144" fill="blue"/><circle cx="342" cy="162" r="9.0000144" stroke="blue" stroke-linecap="round" stroke-linejoin="round" stroke-width="1"/><circle cx="315" cy="180" r="9.0000144" fill="blue"/><circle cx="315" cy="180" r="9.0000144" stroke="blue" stroke-linecap="round" stroke-linejoin="round" stroke-width="1"/><circle cx="396" cy="126" r="9.0000144" fill="blue"/><circle cx="396" cy="126" r="9.0000144" stroke="blue" stroke-linecap="round" stroke-linejoin="round" stroke-width="1"/></g></g></svg>
